<svg width="38" height="27" viewBox="0 0 38 27" fill="none" xmlns="http://www.w3.org/2000/svg">
<path fill-rule="evenodd" clip-rule="evenodd" d="M27.124 15.469C29.4237 17.0301 31.0351 19.1451 31.0351 21.9651V27.0008H37.7494V21.9651C37.7494 18.3058 31.7569 16.1405 27.124 15.469Z" fill="white" fill-opacity="0.9"/>
<path d="M14.2494 13.5711C17.9576 13.5711 20.9637 10.5651 20.9637 6.85686C20.9637 3.14867 17.9576 0.142578 14.2494 0.142578C10.5412 0.142578 7.53516 3.14867 7.53516 6.85686C7.53516 10.5651 10.5412 13.5711 14.2494 13.5711Z" fill="white" fill-opacity="0.9"/>
<path fill-rule="evenodd" clip-rule="evenodd" d="M24.3213 13.5711C28.0309 13.5711 31.0356 10.5665 31.0356 6.85686C31.0356 3.14722 28.0309 0.142578 24.3213 0.142578C23.5324 0.142578 22.7938 0.310435 22.0888 0.545435C23.5332 2.3318 24.3212 4.55958 24.3212 6.85686C24.3212 9.15415 23.5332 11.3819 22.0888 13.1683C22.7938 13.4033 23.5324 13.5711 24.3213 13.5711ZM14.2499 15.2497C9.76807 15.2497 0.821289 17.499 0.821289 21.964V26.9997H27.6784V21.964C27.6784 17.499 18.7316 15.2497 14.2499 15.2497Z" fill="white" fill-opacity="0.9"/>
</svg>
