<svg width="226" height="26" viewBox="0 0 226 26" fill="none" xmlns="http://www.w3.org/2000/svg">
<path d="M30.145 25.5705H24.8042C24.9834 20.6811 25.0193 16.7497 25.0551 11.4307C25.0551 9.58069 25.1626 7.49936 25.2343 5.55019L25.0551 5.51715C24.4099 7.46633 23.6572 9.51461 22.9045 11.1004L16.0582 25.5705H13.6925L6.73871 10.77C5.95014 9.08513 5.19741 7.13596 4.55221 5.35197L4.33715 5.38501C4.40884 7.46633 4.55222 9.61372 4.58806 11.629C4.58806 17.014 4.65975 20.615 4.76728 25.5705H0C0.107533 22.0025 0.107533 18.4015 0.107533 13.1487C0.107533 7.73062 0.107533 4.0305 0.0358443 0.792884H6.88209C8.06495 3.17154 10.6816 8.88691 13.3699 14.4701C13.9434 15.6595 14.6603 17.3443 15.2696 18.9301H15.413C16.0224 17.4104 16.7034 15.8246 17.3486 14.5362C19.9294 9.01906 22.5819 3.27065 23.8006 0.792884H30.1091C30.0016 4.0305 29.9658 7.73062 29.9658 13.1487C29.9658 18.4015 30.0016 22.0025 30.145 25.5705Z" fill="#12123F"/>
<path d="M46.1713 8.58958C42.6227 8.58958 40.5437 10.0762 40.1494 14.2389C43.5546 14.338 48.4653 14.305 51.297 14.2389C51.297 13.9415 51.3328 13.5781 51.3328 13.1817C51.3328 10.1753 49.8274 8.58958 46.1713 8.58958ZM55.8492 19.0292C55.9209 23.1258 54.1287 26 46.2788 26C39.5401 26 35.3822 22.6633 35.3822 15.6264C35.3822 8.45743 39.6835 5.18679 46.3505 5.18679C53.3401 5.18679 55.8492 8.52351 55.8492 13.5121C55.8492 14.8335 55.8134 15.9238 55.7417 16.7827C53.9853 16.7497 50.9027 16.7497 47.2466 16.7497C44.63 16.7497 42.0133 16.7497 40.1136 16.7166C40.3287 20.9454 42.4435 22.5972 46.3146 22.5972C50.2217 22.5972 51.297 21.2097 51.3328 19.0292C51.978 19.0953 52.6949 19.1283 53.6269 19.1283C54.5588 19.1283 55.2398 19.0953 55.8492 19.0292Z" fill="#12123F"/>
<path d="M59.0631 5.6493L61.9665 5.68234C61.9665 4.16264 61.9665 2.74206 61.9665 1.45362C62.7551 1.45362 63.687 1.48666 64.5115 1.48666C65.3359 1.48666 66.232 1.48666 67.0206 1.45362C66.9847 2.80813 66.9489 4.22872 66.913 5.68234C69.7447 5.68234 72.7556 5.6493 75.4439 5.61626C75.3723 6.83863 75.3364 8.4244 75.3364 9.64676C73.0782 9.58069 69.9598 9.54765 66.8413 9.51461C66.8055 12.2567 66.8055 15.23 66.8055 18.5006C66.8055 20.7141 67.8808 21.7713 70.82 21.7713C72.5406 21.7713 74.046 21.4409 75.2647 21.0114C75.4081 22.3659 75.6949 23.9517 75.9099 25.108C73.9743 25.5375 72.5406 25.8348 70.2107 25.8348C64.0455 25.8348 61.8948 23.0267 61.8948 19.0292C61.8948 16.5515 61.9307 13.0496 61.9665 9.48158H59.0631V5.6493Z" fill="#12123F"/>
<path d="M94.3428 17.7078V17.1461C92.694 16.9149 90.8659 16.8488 88.9303 16.8488C85.5251 16.8488 83.9838 17.7738 83.9838 19.7891C83.9838 21.6061 85.2025 22.5642 88.2851 22.5642C92.1205 22.5642 94.3428 20.582 94.3428 17.7078ZM94.4862 21.9695L94.2711 21.9365C93.2316 24.5794 90.5433 25.9009 86.4212 25.9009C81.7256 25.9009 79.109 24.3151 79.109 20.4168C79.109 16.3863 82.0841 14.6023 88.2851 14.6023C90.7225 14.6023 92.909 14.7344 94.3786 14.9987C94.4145 14.305 94.4145 13.6442 94.4145 13.0826C94.4145 10.6379 93.0883 9.08513 89.5755 9.08513C86.1345 9.08513 84.5573 10.4066 84.6649 13.1817C84.0555 13.1487 83.3028 13.1487 82.5142 13.1487C81.5106 13.1487 80.5428 13.1487 79.8617 13.2478C79.6108 8.65565 82.5501 5.2859 89.5397 5.2859C96.6727 5.2859 99.3968 8.4244 99.3968 12.8844C99.3968 15.3621 99.2535 17.2122 99.2535 19.5909C99.2535 21.9034 99.4327 24.6125 99.7553 25.5705H95.5974C94.6296 25.5705 94.4145 25.4384 94.4145 24.3812C94.4145 23.6874 94.4503 22.7954 94.4862 21.9695Z" fill="#12123F"/>
<path d="M136.032 25.5705H130.692C130.871 20.6811 130.907 16.7497 130.943 11.4307C130.943 9.58069 131.05 7.49936 131.122 5.55019L130.943 5.51715C130.297 7.46633 129.545 9.51461 128.792 11.1004L121.946 25.5705H119.58L112.626 10.77C111.838 9.08513 111.085 7.13596 110.44 5.35197L110.225 5.38501C110.296 7.46633 110.44 9.61372 110.476 11.629C110.476 17.014 110.547 20.615 110.655 25.5705H105.887C105.995 22.0025 105.995 18.4015 105.995 13.1487C105.995 7.73062 105.995 4.0305 105.923 0.792884H112.77C113.952 3.17154 116.569 8.88691 119.257 14.4701C119.831 15.6595 120.548 17.3443 121.157 18.9301H121.3C121.91 17.4104 122.591 15.8246 123.236 14.5362C125.817 9.01906 128.469 3.27065 129.688 0.792884H135.997C135.889 4.0305 135.853 7.73062 135.853 13.1487C135.853 18.4015 135.889 22.0025 136.032 25.5705Z" fill="#12123F"/>
<path d="M148.51 2.04829C148.51 2.97332 147.972 3.73316 145.32 3.73316C142.596 3.73316 142.094 2.97332 142.094 2.04829C142.094 1.05718 142.668 0.429479 145.32 0.429479C147.901 0.429479 148.51 1.05718 148.51 2.04829ZM147.829 25.5705H142.739C142.811 22.3329 142.811 19.3266 142.811 15.263C142.811 11.3977 142.811 8.72173 142.739 5.6493H147.829C147.722 8.75477 147.722 11.3647 147.722 15.3952C147.722 19.7891 147.722 22.3659 147.829 25.5705Z" fill="#12123F"/>
<path d="M175.012 25.5705H169.814C169.886 22.5972 169.922 18.831 169.922 13.8094C169.922 10.6709 168.596 9.15121 165.083 9.15121C161.714 9.15121 159.025 10.77 159.025 14.5693C159.025 21.2097 159.061 23.5553 159.097 25.5705H153.971C154.043 22.8285 154.079 20.2846 154.079 15.8577C154.079 11.5299 154.043 8.29225 153.971 5.6493H159.133C159.097 6.9047 159.097 7.86277 159.025 9.08513L159.24 9.11817C160.603 6.5413 163.327 5.31893 167.198 5.31893C172.252 5.31893 174.94 7.63151 174.94 12.8183C174.94 15.8577 174.868 17.1461 174.868 19.0292C174.868 21.3748 174.904 23.4562 175.012 25.5705Z" fill="#12123F"/>
<path d="M196.022 16.8818V10.4727C194.552 9.54765 192.509 9.01906 190.287 9.01906C186.236 9.01906 184.157 11.1004 184.157 15.7255C184.157 20.3837 186.344 22.2668 189.892 22.2668C193.262 22.2668 196.022 20.3837 196.022 16.8818ZM195.878 0H201.076C200.968 3.73316 200.968 7.13596 200.968 13.7103C200.968 18.7319 200.968 22.2668 201.04 25.6036H195.95V23.2579C195.95 22.6633 195.986 22.1017 196.022 21.474L195.807 21.4409C194.66 23.8856 192.15 25.9009 188.279 25.9009C182.938 25.9009 179.354 22.7294 179.354 15.7586C179.354 8.82084 183.261 5.2859 188.817 5.2859C192.115 5.2859 194.444 6.31004 195.842 8.19314L195.986 8.1601C195.95 6.97078 195.95 6.01271 195.95 4.72427C195.95 2.90724 195.986 1.61881 195.878 0Z" fill="#12123F"/>
<path d="M220.946 12.1906V11.5629C220.946 9.6798 219.656 8.82084 215.856 8.82084C212.236 8.82084 210.874 9.58069 210.874 11.0673C210.874 12.4219 211.842 13.3469 217.254 13.8424C223.885 14.5362 226 16.3532 226 19.9873C226 23.7535 223.132 26 216.107 26C208.508 26 205.856 23.7535 205.856 19.8221C205.856 19.4917 205.891 19.1944 205.891 18.831C206.465 18.8971 207.325 18.9301 208.293 18.9301C209.117 18.9301 209.942 18.9301 210.515 18.864C210.479 19.0623 210.479 19.2605 210.479 19.4257C210.479 21.474 212.092 22.3659 216.143 22.3659C219.871 22.3659 221.233 21.5731 221.233 19.9212C221.233 18.4015 220.014 17.5426 214.745 17.0801C207.935 16.4524 206.071 14.2719 206.071 11.0013C206.071 7.10292 209.297 5.21982 215.928 5.21982C222.702 5.21982 225.57 7.169 225.57 11.1004C225.57 11.4968 225.534 11.7942 225.498 12.2236C224.925 12.1906 223.993 12.1576 223.097 12.1576C222.236 12.1576 221.412 12.1906 220.946 12.1906Z" fill="#12123F"/>
</svg>
