<svg width="34" height="34" viewBox="0 0 34 34" fill="none" xmlns="http://www.w3.org/2000/svg">
<path d="M32.571 11.7666L22.0914 1.28749C21.8647 1.06074 21.5955 0.88087 21.2993 0.75815C21.003 0.635429 20.6855 0.572266 20.3649 0.572266C20.0442 0.572266 19.7267 0.635429 19.4304 0.75815C19.1342 0.88087 18.865 1.06074 18.6383 1.28749L14.2988 5.62685L5.44875 8.94698C5.04661 9.09661 4.69101 9.34957 4.41777 9.68039C4.14454 10.0112 3.96332 10.4082 3.89237 10.8313L0.723148 29.8427C0.701902 29.9702 0.721671 30.1011 0.779606 30.2167C0.837541 30.3322 0.930651 30.4263 1.04552 30.4855C1.1604 30.5448 1.2911 30.566 1.41881 30.5462C1.54652 30.5263 1.66464 30.4665 1.75616 30.3752L10.4536 21.6782C10.178 21.1049 10.0575 20.4694 10.1042 19.835C10.1609 19.0546 10.4661 18.3129 10.9751 17.7186C11.4842 17.1243 12.1702 16.7086 12.9326 16.5326C13.695 16.3565 14.4938 16.4293 15.2119 16.7402C15.93 17.0512 16.5296 17.584 16.9228 18.2605C17.316 18.937 17.4821 19.7217 17.3969 20.4995C17.3116 21.2773 16.9795 22.0074 16.4491 22.5827C15.9187 23.158 15.2179 23.5482 14.4495 23.6963C13.6812 23.8444 12.8856 23.7424 12.1793 23.4054L3.48191 32.1024C3.39066 32.1939 3.3308 32.3121 3.31098 32.4398C3.29116 32.5675 3.31238 32.6982 3.3716 32.813C3.43082 32.9279 3.52497 33.021 3.6405 33.0789C3.75602 33.1369 3.88696 33.1566 4.01444 33.1354L23.0282 29.9663C23.4507 29.8959 23.8473 29.7156 24.1781 29.4435C24.5088 29.1714 24.7622 28.8171 24.9127 28.4161L28.2345 19.5558L32.571 15.221C32.7978 14.9943 32.9777 14.7252 33.1004 14.429C33.2231 14.1327 33.2863 13.8152 33.2863 13.4946C33.2863 13.174 33.2231 12.8565 33.1004 12.5602C32.9777 12.264 32.7978 11.9949 32.571 11.7682V11.7666ZM27.1832 17.1558L16.7035 6.6766L20.3656 3.01469L30.8453 13.4938L27.1832 17.1558Z" fill="white" fill-opacity="0.9"/>
</svg>
