<svg width="40" height="40" viewBox="0 0 40 40" fill="none" xmlns="http://www.w3.org/2000/svg">
<path d="M9.81265 33.2076H29.2466C31.2265 33.2076 32.8315 31.6025 32.8315 29.6227V29.6227C32.8315 27.6428 31.2265 26.0378 29.2466 26.0378H18.1145C16.0304 26.0378 14.3409 24.3483 14.3409 22.2642V10.5661C14.3409 8.48197 16.0304 6.79248 18.1145 6.79248H27.9258C30.0099 6.79248 31.6994 8.48197 31.6994 10.5661V11.6981C31.6994 13.7822 30.0099 15.4717 27.9258 15.4717H9.81265C7.72855 15.4717 6.03906 17.1612 6.03906 19.2453V29.434C6.03906 31.5181 7.72856 33.2076 9.81265 33.2076Z" stroke="#FCFCFC" stroke-width="3.01887"/>
</svg>
