<svg width="25" height="16" viewBox="0 0 25 16" fill="none" xmlns="http://www.w3.org/2000/svg">
<path d="M14.2934 1.63605C14.106 1.82358 14.0007 2.07788 14.0007 2.34305C14.0007 2.60821 14.106 2.86252 14.2934 3.05005L19.2434 8.00005L14.2934 12.95C14.1113 13.1387 14.0105 13.3913 14.0128 13.6535C14.015 13.9156 14.1202 14.1665 14.3056 14.3519C14.491 14.5373 14.7418 14.6424 15.004 14.6447C15.2662 14.647 15.5188 14.5462 15.7074 14.364L21.3644 8.70705C21.5519 8.51952 21.6572 8.26521 21.6572 8.00005C21.6572 7.73488 21.5519 7.48058 21.3644 7.29305L15.7074 1.63605C15.5199 1.44858 15.2656 1.34326 15.0004 1.34326C14.7353 1.34326 14.481 1.44858 14.2934 1.63605Z" fill="white"/>
<path d="M5.29344 1.63605C5.10597 1.82358 5.00065 2.07788 5.00065 2.34305C5.00065 2.60821 5.10597 2.86252 5.29344 3.05005L10.2434 8.00005L5.29344 12.95C5.11128 13.1387 5.01049 13.3913 5.01277 13.6535C5.01504 13.9156 5.12021 14.1665 5.30562 14.3519C5.49103 14.5373 5.74184 14.6424 6.00404 14.6447C6.26624 14.647 6.51884 14.5462 6.70744 14.364L12.3644 8.70705C12.5519 8.51952 12.6572 8.26521 12.6572 8.00005C12.6572 7.73488 12.5519 7.48058 12.3644 7.29305L6.70744 1.63605C6.51991 1.44858 6.2656 1.34326 6.00044 1.34326C5.73528 1.34326 5.48097 1.44858 5.29344 1.63605Z" fill="white"/>
</svg>
