<svg width="23" height="30" viewBox="0 0 23 30" fill="none" xmlns="http://www.w3.org/2000/svg">
<path d="M15.1821 3.69757C16.6864 6.13414 18.122 10.0676 18.4841 16.3614L21.2699 19.76C21.928 20.5836 22.2863 21.6066 22.2857 22.6609V28.7857C22.2857 28.9806 22.2244 29.1706 22.1104 29.3287C21.9965 29.4868 21.8357 29.605 21.6508 29.6666C21.4659 29.7283 21.2663 29.7302 21.0803 29.672C20.8942 29.6139 20.7312 29.4988 20.6143 29.3429L18.525 26.5571C18.2167 26.1449 17.745 25.8143 17.1284 25.4986C16.731 25.298 16.3596 25.142 15.964 24.9749L15.6 24.8207C14.3 25.6156 12.7214 26 11.1429 26C9.56429 26 7.98571 25.6156 6.68571 24.8207C6.56067 24.8752 6.4381 24.9272 6.318 24.9767C5.92614 25.142 5.55471 25.298 5.15729 25.4986C4.54071 25.8143 4.069 26.1449 3.76071 26.5571L1.67143 29.3429C1.55449 29.4988 1.39147 29.6139 1.20544 29.672C1.01942 29.7302 0.819821 29.7283 0.634931 29.6666C0.450042 29.605 0.28923 29.4868 0.175275 29.3287C0.0613205 29.1706 8.34305e-10 28.9806 8.34305e-10 28.7857V22.6609C-1.99814e-05 21.6064 0.358904 20.5833 1.01771 19.76L1.02514 19.7507L3.80529 16.3614C4.17114 10.1901 5.60486 6.26971 7.09986 3.81457C7.96529 2.39014 8.84557 1.47086 9.53271 0.898857C9.87885 0.608997 10.2527 0.353955 10.6489 0.137429C10.7992 0.0503604 10.9692 0.00306045 11.1429 0C11.3304 0 11.4586 0.0501429 11.6071 0.118857C11.6765 0.14981 11.7662 0.196238 11.8764 0.258143C12.0956 0.380714 12.3909 0.568286 12.7363 0.843143C13.429 1.39471 14.3149 2.28986 15.1821 3.69757ZM13.9286 11.1429C13.9286 9.09071 12.6806 7.42857 11.1429 7.42857C9.60514 7.42857 8.35714 9.09071 8.35714 11.1429C8.35714 13.195 9.60514 14.8571 11.1429 14.8571C12.6806 14.8571 13.9286 13.195 13.9286 11.1429Z" fill="white" fill-opacity="0.9"/>
</svg>
