<svg width="26" height="26" viewBox="0 0 26 26" fill="none" xmlns="http://www.w3.org/2000/svg">
<path d="M2.78275 3.78241C2.78275 3.8009 4.34123 6.04419 6.25083 8.76202C8.16043 11.4798 9.76819 13.7786 9.82979 13.871L9.94067 14.0374L7.00235 17.3839C5.38227 19.2266 3.77451 21.0508 3.42339 21.4514C3.07227 21.8458 2.78275 22.1848 2.78275 22.2033C2.78275 22.2217 3.16467 22.2402 3.63283 22.2402L4.47675 22.2341L5.00035 21.6363C6.72515 19.6457 10.6983 15.1529 10.723 15.1591C10.7415 15.1591 11.8687 16.7491 13.2239 18.6843L15.6941 22.2094L18.4784 22.2279C20.0061 22.2341 21.2627 22.2279 21.2627 22.2094C21.2627 22.1909 19.5995 19.8059 17.5667 16.9093C15.5339 14.0066 13.8707 11.6154 13.8707 11.5846C13.8707 11.56 15.4046 9.79122 17.2772 7.65886L20.6899 3.78241L19.8829 3.76392C19.4455 3.75776 19.0513 3.75776 19.0082 3.77625C18.9712 3.78857 17.6283 5.28615 16.0329 7.1042C14.4375 8.91609 13.1131 10.4137 13.0884 10.426C13.0576 10.4445 11.9858 8.95307 10.6983 7.12269L8.35139 3.78241L5.56707 3.76392C4.03323 3.75776 2.78275 3.76392 2.78275 3.78241ZM13.1931 12.9774C16.3286 17.3716 18.9035 20.9892 18.9096 21.02C18.9219 21.0446 18.3983 21.0693 17.7392 21.0693H16.5503L10.8092 13.0267L5.06811 4.98417H6.28163L7.49515 4.99033L13.1931 12.9774Z" fill="white"/>
</svg>
