<svg width="22" height="23" viewBox="0 0 22 23" fill="none" xmlns="http://www.w3.org/2000/svg">
<path d="M16.3036 12.0551C16.3311 15.0268 18.8997 16.0157 18.9281 16.0283C18.9063 16.098 18.5177 17.4375 17.5749 18.8211C16.7599 20.0173 15.914 21.2091 14.5814 21.2338C13.2722 21.258 12.8511 20.4541 11.3542 20.4541C9.85773 20.4541 9.38995 21.2091 8.15052 21.258C6.86431 21.3069 5.88485 19.9646 5.06312 18.7727C3.38384 16.3348 2.10055 11.8838 3.82368 8.87923C4.67968 7.38715 6.20951 6.44237 7.86989 6.41814C9.1329 6.39397 10.3251 7.27142 11.0972 7.27142C11.8688 7.27142 13.3175 6.21621 14.8405 6.37117C15.478 6.39784 17.2677 6.62974 18.4169 8.31893C18.3242 8.37658 16.2814 9.57081 16.3036 12.0552M13.843 4.7583C14.5259 3.92825 14.9855 2.77281 14.8601 1.62305C13.8758 1.66277 12.6856 2.28171 11.9795 3.11126C11.3468 3.84593 10.7927 5.02174 10.9422 6.1487C12.0394 6.23395 13.1601 5.58884 13.843 4.7583Z" fill="white"/>
</svg>
