<svg width="16" height="16" viewBox="0 0 16 16" fill="none" xmlns="http://www.w3.org/2000/svg">
<path d="M14.391 7.65728C14.3223 6.3561 13.865 5.15796 13.133 4.17678C12.9399 4.38726 12.7028 4.61584 12.3966 4.87327C11.6705 5.48366 10.791 6.03446 9.74672 6.4808C9.87984 6.76048 10.0023 7.03192 10.1101 7.28784L10.111 7.29C10.1322 7.33936 10.1503 7.38448 10.1857 7.47344C10.1903 7.48496 10.1946 7.49576 10.1988 7.506C11.4097 7.36976 12.6861 7.41992 13.9239 7.5876C14.0885 7.60984 14.244 7.6332 14.391 7.65728ZM6.88352 1.69704C7.02264 1.89297 7.16816 2.10287 7.34424 2.36302C7.83432 3.08712 8.3168 3.85113 8.76832 4.63606C8.85992 4.79533 8.9496 4.95431 9.03712 5.1129C10.0154 4.72794 10.8237 4.24225 11.475 3.69989C11.7385 3.4805 11.9506 3.2744 12.1122 3.09578C11.0001 2.16222 9.56568 1.6 8 1.6C7.6192 1.6 7.24608 1.63326 6.88352 1.69704ZM1.80213 6.39804C2.26516 6.38762 2.78774 6.35953 3.43442 6.30014C4.72019 6.18206 6.03313 5.96999 7.32392 5.64219C6.85752 4.82977 6.3511 4.01865 5.83562 3.24302C5.58783 2.8702 5.34686 2.51994 5.16387 2.26114C3.51633 3.0769 2.27035 4.58126 1.80213 6.39804ZM3.02693 12.0288C3.33689 11.5754 3.74449 11.0651 4.28638 10.5099C5.44959 9.31824 6.82288 8.39024 8.41112 7.87784C8.43336 7.87128 8.44832 7.86688 8.4608 7.8632C8.3288 7.57208 8.20496 7.3124 8.08024 7.06736C6.61144 7.49496 5.06424 7.7624 3.52223 7.90096C2.77055 7.96848 2.09604 7.99848 1.6 8.00352C1.60082 9.52896 2.13532 10.9296 3.02693 12.0288ZM10.4036 13.9333C10.3201 13.4996 10.2135 13.0165 10.0719 12.4592C9.81512 11.449 9.49344 10.4096 9.0984 9.36624C7.49696 9.94744 6.22059 10.7979 5.23447 11.8119C4.75923 12.3006 4.40995 12.763 4.18114 13.1362C5.24714 13.9302 6.56872 14.4 8 14.4C8.85008 14.4 9.66152 14.2342 10.4036 13.9333ZM11.9022 13.0731C13.1258 12.1306 13.9988 10.7552 14.2922 9.17624C14.0202 9.1092 13.6752 9.0404 13.2957 8.98768C12.4605 8.87176 11.6011 8.8524 10.7527 8.96144C11.1146 9.98112 11.4114 10.9866 11.6486 11.9489C11.7522 12.3691 11.8366 12.7486 11.9022 13.0731ZM8 16C3.58172 16 0 12.4182 0 8C0 3.58172 3.58172 0 8 0C12.4182 0 16 3.58172 16 8C16 12.4182 12.4182 16 8 16Z" fill="white"/>
</svg>
