<svg width="25" height="26" viewBox="0 0 25 26" fill="none" xmlns="http://www.w3.org/2000/svg">
<path d="M3.78587 3.14857C3.56606 3.26932 3.20742 3.60742 2.99919 3.89722C2.62898 4.39229 2.60584 4.45267 2.65212 5.27377C2.68683 6.01034 2.7331 6.19147 3.02232 6.55372C3.60077 7.26614 3.97097 7.43519 4.94275 7.44727C5.69473 7.44727 5.87983 7.39897 6.29631 7.10917C7.12927 6.55372 7.44163 5.75677 7.24496 4.65794C7.12927 4.01797 6.82848 3.58327 6.23847 3.19687C5.67159 2.83462 4.38745 2.81047 3.78587 3.14857Z" fill="white"/>
<path d="M16.0846 9.20152C15.3326 9.40679 14.6732 9.80527 14.0948 10.3969L13.4816 11.0248V10.24V9.45509H11.3992H9.31683V15.9756V22.4961H11.3992H13.4816V18.4993C13.4816 14.0194 13.4816 14.0436 14.3262 13.1863C15.4021 12.1116 17.0101 12.5342 17.5307 14.0436C17.739 14.6473 17.7621 15.0096 17.7621 18.5959V22.4961H19.8561H21.9385L21.9038 17.7506L21.8575 13.0172L21.5451 12.1961C21.0477 10.8799 20.2725 10.0105 19.0925 9.46717C18.4678 9.17737 16.7325 9.02039 16.0846 9.20152Z" fill="white"/>
<path d="M2.85938 15.7197V22.2402H4.94177H7.02417V15.7197V9.19923H4.94177H2.85938V15.7197Z" fill="white"/>
</svg>
