<svg width="15" height="15" viewBox="0 0 15 15" fill="none" xmlns="http://www.w3.org/2000/svg">
<path d="M3.93947 12.3708L4.48302 12.6877C5.39108 13.2172 6.42308 13.5 7.50001 13.5C10.8137 13.5 13.5 10.8137 13.5 7.5C13.5 4.18629 10.8137 1.5 7.50001 1.5C4.18629 1.5 1.5 4.18629 1.5 7.5C1.5 8.57722 1.78292 9.6096 2.31276 10.5178L2.62954 11.0609L2.13943 12.8621L3.93947 12.3708ZM0.00313514 15L1.0171 11.2736C0.37047 10.1652 0 8.87587 0 7.5C0 3.35786 3.35786 0 7.50001 0C11.6421 0 15 3.35786 15 7.5C15 11.6421 11.6421 15 7.50001 15C6.12459 15 4.83564 14.6298 3.72741 13.9835L0.00313514 15ZM4.7935 3.98125C4.89391 3.97419 4.99466 3.97311 5.0952 3.97801C5.13582 3.98068 5.17625 3.98538 5.2167 3.99005C5.33615 4.00384 5.46749 4.07659 5.51165 4.17671C5.73539 4.68402 5.95249 5.19424 6.16291 5.70722C6.20933 5.82046 6.18136 5.96725 6.09301 6.10928C6.04816 6.1821 5.97772 6.28425 5.89612 6.38873C5.8113 6.49725 5.62875 6.69683 5.62875 6.69683C5.62875 6.69683 5.55479 6.78547 5.58267 6.8958C5.59353 6.9375 5.62817 6.99825 5.65957 7.04932C5.67696 7.0776 5.69311 7.10288 5.70359 7.12035C5.89553 7.44082 6.15353 7.76572 6.46868 8.0712C6.55898 8.15872 6.64658 8.24805 6.74078 8.331C7.09201 8.64067 7.48936 8.89373 7.91851 9.08115L7.92233 9.08288C7.98571 9.11018 8.01826 9.1251 8.11103 9.16448C8.15783 9.18428 8.20568 9.20138 8.25481 9.21435C8.27258 9.219 8.29081 9.22163 8.30911 9.2229C8.43038 9.23018 8.50051 9.1524 8.53043 9.11662C9.07306 8.45925 9.12271 8.41635 9.12646 8.41665V8.41785C9.19778 8.3427 9.30991 8.3166 9.40996 8.32275C9.45563 8.32553 9.50108 8.3343 9.54263 8.35328C9.94148 8.53522 10.5936 8.81903 10.5936 8.81903L11.0297 9.01507C11.1028 9.05032 11.1695 9.13335 11.1727 9.21405C11.1746 9.26423 11.18 9.34523 11.1621 9.49343C11.1386 9.68745 11.0796 9.92107 11.021 10.0435C10.9797 10.1293 10.9263 10.2056 10.8642 10.2701C10.78 10.3575 10.7174 10.4106 10.6162 10.486C10.5545 10.5319 10.5226 10.5535 10.5226 10.5535C10.4184 10.6192 10.3597 10.6521 10.2356 10.7182C10.0425 10.821 9.82921 10.8801 9.61073 10.8913C9.47146 10.8985 9.33256 10.9085 9.19343 10.901C9.18728 10.9007 8.76728 10.8362 8.76728 10.8362C7.70086 10.5556 6.71461 10.0302 5.88701 9.3015C5.71781 9.15255 5.56088 8.99137 5.40071 8.83192C4.73392 8.1681 4.22913 7.4523 3.92303 6.7752C3.77208 6.4413 3.6765 6.0837 3.675 5.71574C3.67223 5.26054 3.82125 4.8174 4.09853 4.4564C4.15319 4.38523 4.20507 4.31141 4.29458 4.22689C4.38937 4.13738 4.4497 4.08933 4.51469 4.05608C4.60131 4.01177 4.69646 3.98807 4.7935 3.98125Z" fill="white"/>
</svg>
