<svg width="22" height="22" viewBox="0 0 22 22" fill="none" xmlns="http://www.w3.org/2000/svg">
<path d="M11.6437 10.8415L14.3434 7.59911L5.62342 1.71296C5.04549 1.33794 4.50408 1.28531 4.02933 1.69541L11.6437 10.8415ZM14.8036 14.6377L17.6101 12.7418C18.1579 12.3734 18.4583 11.8514 18.4583 11.2725C18.4583 10.6946 18.1579 10.1716 17.611 9.80313L15.0702 8.08926L12.2098 11.5236L14.8036 14.6377ZM3.56005 2.49259C3.50162 2.7086 3.46875 2.94984 3.46875 3.2141V19.3385C3.46875 19.7563 3.54544 20.116 3.68422 20.4022L11.0767 11.5225L3.56005 2.49259ZM11.6437 12.2023L4.29227 21.0327C4.43287 21.0974 4.58443 21.1314 4.7442 21.1314C5.02906 21.1314 5.32578 21.0305 5.62798 20.8287L14.0777 15.1301L11.6437 12.2023Z" fill="white"/>
</svg>
