<svg width="41" height="41" viewBox="0 0 41 41" fill="none" xmlns="http://www.w3.org/2000/svg">
<g clip-path="url(#clip0_814_3069)">
<path d="M15.6934 10.7729C15.9962 10.7812 16.332 10.7977 16.6514 11.5059C16.8632 11.9775 17.2189 12.8461 17.5101 13.5543C17.7368 14.1053 17.9221 14.5586 17.9684 14.6513C18.0743 14.8631 18.1405 15.1063 18.0015 15.3926L17.9552 15.4885C17.8611 15.7112 17.7327 15.9178 17.5746 16.1007L17.338 16.382C17.1974 16.5541 17.0568 16.7229 16.9376 16.842C16.7242 17.0538 16.5041 17.2821 16.749 17.7057C16.9939 18.1293 17.8543 19.5225 19.1233 20.6459C20.0515 21.4831 21.1166 22.1547 22.2721 22.6314C22.3879 22.6811 22.4816 22.723 22.5533 22.7572C22.9786 22.969 23.2317 22.9359 23.4766 22.6513C23.7231 22.3651 24.5405 21.412 24.8284 20.9884C25.1064 20.5648 25.391 20.631 25.7848 20.7766C26.1786 20.9239 28.2733 21.9514 28.6985 22.1615L28.9351 22.2774C29.2313 22.418 29.4315 22.5156 29.5176 22.6579C29.6234 22.8383 29.6234 23.6838 29.2727 24.6798C28.912 25.6726 27.1763 26.6257 26.3904 26.6985L26.167 26.7249C25.4456 26.811 24.5322 26.9235 21.276 25.6412C17.2619 24.0627 14.6129 20.1479 14.0785 19.3553L13.9908 19.2296L13.9808 19.2163C13.7376 18.8904 12.2468 16.8966 12.2468 14.8383C12.2468 12.8693 13.2181 11.8434 13.6599 11.3769L13.7376 11.2941C13.8806 11.1326 14.0553 11.0022 14.2509 10.9111C14.4465 10.82 14.6587 10.7702 14.8743 10.7646C15.1606 10.7646 15.4485 10.7646 15.6934 10.7729Z" fill="white" fill-opacity="0.8"/>
<path fill-rule="evenodd" clip-rule="evenodd" d="M4.6054 34.2039C4.57422 34.3161 4.57319 34.4345 4.60239 34.5472C4.6316 34.6599 4.69002 34.7629 4.77175 34.8458C4.85348 34.9287 4.95564 34.9886 5.06791 35.0194C5.18018 35.0502 5.29859 35.0509 5.41119 35.0213L13.0339 33.0292C15.4524 34.3391 18.1594 35.0255 20.9098 35.0263H20.9165C29.9936 35.0263 37.393 27.6699 37.393 18.6258C37.3986 16.4692 36.9752 14.3329 36.1474 12.3414C35.3197 10.3498 34.1041 8.5428 32.5715 7.02544C31.0415 5.49562 29.2241 4.2834 27.2239 3.45849C25.2236 2.63359 23.0801 2.21229 20.9165 2.21882C11.8393 2.21882 4.43994 9.57518 4.43994 18.6176C4.43994 21.4949 5.19775 24.321 6.64056 26.8145L4.6054 34.2039ZM9.03477 27.473C9.12225 27.1555 9.14566 26.8237 9.10362 26.497C9.06157 26.1703 8.95492 25.8553 8.78989 25.5702C7.56738 23.457 6.92308 21.059 6.92184 18.6176C6.92184 10.9568 13.1977 4.70073 20.9165 4.70073C24.6724 4.70073 28.1768 6.15181 30.8209 8.78428C32.1218 10.0711 33.1535 11.604 33.8557 13.2937C34.558 14.9834 34.9167 16.796 34.9111 18.6258C34.9111 26.2867 28.6352 32.5444 20.9165 32.5444H20.9082C18.5714 32.5431 16.2717 31.9597 14.217 30.8467C13.6632 30.5469 13.0161 30.4688 12.4068 30.6283L7.83684 31.8213L9.03477 27.473Z" fill="white" fill-opacity="0.8"/>
</g>
<defs>
<clipPath id="clip0_814_3069">
<rect width="39.7104" height="39.7104" fill="white" transform="translate(0.985107 0.800781)"/>
</clipPath>
</defs>
</svg>
