<svg width="23" height="15" viewBox="0 0 23 15" fill="none" xmlns="http://www.w3.org/2000/svg">
<path d="M6.68973 0C7.3536 0 7.9664 0.0530038 8.52813 0.212014C9.08987 0.318021 9.54945 0.530035 9.95804 0.795053C10.3665 1.06007 10.6729 1.43108 10.8772 1.90812C11.0814 2.38515 11.1836 2.96819 11.1836 3.60423C11.1836 4.34628 11.0305 4.98237 10.6729 5.45937C10.3665 5.93637 9.85587 6.36044 9.24307 6.67844C10.1112 6.9434 10.775 7.42051 11.1836 8.05651C11.5921 8.69251 11.8474 9.48761 11.8474 10.3887C11.8474 11.1308 11.6943 11.7668 11.4389 12.2968C11.1836 12.8268 10.775 13.3038 10.3154 13.6219C9.85587 13.9399 9.29414 14.2049 8.68134 14.3639C8.06853 14.5229 7.45574 14.629 6.84293 14.629H0V0H6.68973ZM6.2812 5.93637C6.84293 5.93637 7.30254 5.77737 7.66 5.51241C8.01747 5.24733 8.17067 4.7703 8.17067 4.18726C8.17067 3.86924 8.1196 3.55122 8.01747 3.33921C7.91533 3.1272 7.76214 2.96818 7.55787 2.80917C7.35361 2.70317 7.14934 2.59716 6.894 2.54416C6.63867 2.49115 6.38333 2.49115 6.07694 2.49115H3.11507V5.93637H6.2812ZM6.4344 12.1908C6.7408 12.1908 7.04721 12.1378 7.30254 12.0848C7.55787 12.0318 7.8132 11.9258 8.01747 11.7668C8.22173 11.6078 8.37493 11.4488 8.52813 11.1837C8.63027 10.9187 8.73241 10.6007 8.73241 10.2297C8.73241 9.48761 8.52814 8.95758 8.1196 8.58654C7.71107 8.26855 7.14934 8.10954 6.48547 8.10954H3.11507V12.1908H6.4344ZM16.2902 12.1378C16.6988 12.5619 17.3116 12.7738 18.1287 12.7738C18.6904 12.7738 19.2011 12.6148 19.6096 12.3498C20.0182 12.0318 20.2735 11.7137 20.3757 11.3957H22.8779C22.4693 12.6678 21.8566 13.5689 21.0395 14.152C20.2224 14.682 19.2522 15 18.0776 15C17.2605 15 16.5456 14.841 15.8818 14.5759C15.2178 14.311 14.7072 13.9399 14.2476 13.4099C13.788 12.9328 13.4305 12.3498 13.2263 11.6608C12.9709 10.9718 12.8688 10.2297 12.8688 9.38165C12.8688 8.58654 12.9709 7.84447 13.2263 7.15544C13.4816 6.46641 13.8391 5.88333 14.2987 5.3533C14.7583 4.87631 15.32 4.45228 15.9328 4.18726C16.5967 3.92225 17.2605 3.76324 18.0776 3.76324C18.9457 3.76324 19.7117 3.92225 20.3757 4.29327C21.0395 4.6643 21.5501 5.08834 21.9586 5.72433C22.3672 6.30741 22.6736 6.99644 22.8779 7.73851C22.98 8.48058 23.031 9.22254 22.98 10.0707H15.5753C15.5753 10.9187 15.8818 11.7137 16.2902 12.1378ZM19.5075 6.57248C19.15 6.20144 18.5882 5.98941 17.9244 5.98941C17.4648 5.98941 17.1073 6.09537 16.8009 6.25437C16.4945 6.41337 16.2902 6.6254 16.086 6.83744C15.8818 7.04948 15.7796 7.31444 15.7285 7.57951C15.6775 7.84447 15.6264 8.05651 15.6264 8.26855H20.2224C20.1203 7.47344 19.8649 6.9434 19.5075 6.57248ZM15.0136 1.00706H20.7331V2.43815H15.0136V1.00706Z" fill="white"/>
</svg>
