<svg width="33" height="33" viewBox="0 0 33 33" fill="none" xmlns="http://www.w3.org/2000/svg">
<path d="M0 16.2857C0 25.2823 7.28917 32.5714 16.2857 32.5714C25.2823 32.5714 32.5714 25.2823 32.5714 16.2857C32.5714 7.28917 25.2823 0 16.2857 0C7.28917 0 0 7.28917 0 16.2857ZM13.1336 13.1336C13.1336 14.296 12.1946 15.235 11.0323 15.235C9.86993 15.235 8.93088 14.296 8.93088 13.1336C8.93088 11.9713 9.86993 11.0323 11.0323 11.0323C12.1946 11.0323 13.1336 11.9713 13.1336 13.1336ZM23.5421 14.2172C22.5702 13.3503 20.5082 13.3503 19.5363 14.2172L18.9124 14.7753C18.3674 15.2613 17.494 14.8016 17.6122 14.0661C17.8749 12.4113 19.8581 11.3015 21.5457 11.3015C23.2334 11.3015 25.2166 12.4113 25.4793 14.0661C25.5909 14.795 24.7306 15.2679 24.179 14.7753L23.5421 14.2172ZM10.3624 20.8694C11.8334 22.6358 13.9873 23.6406 16.2857 23.6406C18.5841 23.6406 20.738 22.6293 22.209 20.8694C23.1021 19.8055 24.7109 21.1452 23.8244 22.2156C21.9529 24.4548 19.2079 25.7419 16.2857 25.7419C13.3635 25.7419 10.6185 24.4548 8.747 22.209C7.86048 21.1386 9.48249 19.799 10.3624 20.8694Z" fill="white" fill-opacity="0.9"/>
</svg>
