<svg width="68" height="26" viewBox="0 0 68 26" fill="none" xmlns="http://www.w3.org/2000/svg">
<path d="M5.8125 23.1875C3.92969 23.1875 2.57031 22.7188 1.73438 21.7812C0.90625 20.8438 0.492188 19.3516 0.492188 17.3047V15.2891H4.57031V17.8672C4.57031 18.3438 4.64062 18.7188 4.78125 18.9922C4.92969 19.2578 5.18359 19.3906 5.54297 19.3906C5.91797 19.3906 6.17578 19.2812 6.31641 19.0625C6.46484 18.8438 6.53906 18.4844 6.53906 17.9844C6.53906 17.3516 6.47656 16.8242 6.35156 16.4023C6.22656 15.9727 6.00781 15.5664 5.69531 15.1836C5.39062 14.793 4.96484 14.3398 4.41797 13.8242L2.56641 12.0664C1.18359 10.7617 0.492188 9.26953 0.492188 7.58984C0.492188 5.83203 0.898437 4.49219 1.71094 3.57031C2.53125 2.64844 3.71484 2.1875 5.26172 2.1875C7.15234 2.1875 8.49219 2.69141 9.28125 3.69922C10.0781 4.70703 10.4766 6.23828 10.4766 8.29297H6.28125V6.875C6.28125 6.59375 6.19922 6.375 6.03516 6.21875C5.87891 6.0625 5.66406 5.98438 5.39062 5.98438C5.0625 5.98438 4.82031 6.07812 4.66406 6.26562C4.51562 6.44531 4.44141 6.67969 4.44141 6.96875C4.44141 7.25781 4.51953 7.57031 4.67578 7.90625C4.83203 8.24219 5.14062 8.62891 5.60156 9.06641L7.98047 11.3516C8.45703 11.8047 8.89453 12.2852 9.29297 12.793C9.69141 13.293 10.0117 13.8789 10.2539 14.5508C10.4961 15.2148 10.6172 16.0273 10.6172 16.9883C10.6172 18.9258 10.2578 20.4453 9.53906 21.5469C8.82812 22.6406 7.58594 23.1875 5.8125 23.1875ZM15.1289 23.1875C14.1523 23.1875 13.4062 22.9609 12.8906 22.5078C12.3828 22.0547 12.0352 21.4336 11.8477 20.6445C11.6602 19.8555 11.5664 18.9609 11.5664 17.9609C11.5664 16.8906 11.6719 16.0156 11.8828 15.3359C12.0938 14.6484 12.4531 14.0859 12.9609 13.6484C13.4766 13.2109 14.1836 12.8398 15.082 12.5352L17.6836 11.6445V9.83984C17.6836 8.89453 17.375 8.42188 16.7578 8.42188C16.1953 8.42188 15.9141 8.80469 15.9141 9.57031V10.625H11.8359C11.8281 10.5625 11.8242 10.4844 11.8242 10.3906C11.8242 10.2891 11.8242 10.1758 11.8242 10.0508C11.8242 8.30078 12.2344 7.0625 13.0547 6.33594C13.8828 5.60156 15.1914 5.23438 16.9805 5.23438C17.918 5.23438 18.7578 5.40234 19.5 5.73828C20.2422 6.06641 20.8281 6.55469 21.2578 7.20312C21.6953 7.85156 21.9141 8.65234 21.9141 9.60547V23H17.7422V20.9141C17.5391 21.6484 17.2031 22.2109 16.7344 22.6016C16.2656 22.9922 15.7305 23.1875 15.1289 23.1875ZM16.7812 19.9297C17.125 19.9297 17.3594 19.7852 17.4844 19.4961C17.6094 19.207 17.6719 18.8945 17.6719 18.5586V13.6602C17.0938 13.8945 16.6445 14.1914 16.3242 14.5508C16.0039 14.9023 15.8438 15.4219 15.8438 16.1094V18.3711C15.8438 19.4102 16.1562 19.9297 16.7812 19.9297ZM23.1914 25.9297V23.2695H25.207C25.5117 23.2695 25.6641 23.1641 25.6641 22.9531C25.6641 22.8438 25.6523 22.7305 25.6289 22.6133L22.875 5.42188H26.8945L28.0664 18.3594L29.4492 5.42188H33.4922L30.2344 23.9141C30.1172 24.5781 29.8906 25.0781 29.5547 25.4141C29.2266 25.7578 28.6836 25.9297 27.9258 25.9297H23.1914ZM40.2891 23V2.375H44.3906V9.74609H46.3359V2.375H50.4375V23H46.3359V13.6484H44.3906V23H40.2891ZM52.1719 4.34375V0.851562H56.3672V4.34375H52.1719ZM52.1719 23V5.42188H56.3672V23H52.1719ZM64.2773 17.3867L63.457 2.375H67.6523L66.832 17.3867H64.2773ZM63.457 22.9883V19.4961H67.6523V22.9883H63.457Z" fill="white"/>
</svg>
