<svg width="27" height="27" viewBox="0 0 27 27" fill="none" xmlns="http://www.w3.org/2000/svg">
<path d="M13.012 10.1214C11.411 10.1214 10.114 11.4188 10.114 13.0194C10.114 14.6203 11.4114 15.9174 13.012 15.9174C14.613 15.9174 15.91 14.6199 15.91 13.0194C15.91 11.4184 14.6126 10.1214 13.012 10.1214ZM13.012 8.18937C15.6785 8.18937 17.842 10.3504 17.842 13.0194C17.842 15.686 15.681 17.8494 13.012 17.8494C10.3454 17.8494 8.18199 15.6883 8.18199 13.0194C8.18199 10.3528 10.343 8.18937 13.012 8.18937ZM19.291 7.94705C19.291 8.6137 18.7493 9.15457 18.0835 9.15457C17.4169 9.15457 16.876 8.61287 16.876 7.94705C16.876 7.28124 17.4176 6.74037 18.0835 6.74037C18.7484 6.73953 19.291 7.28124 19.291 7.94705ZM13.012 5.29137C10.6216 5.29137 10.232 5.2977 9.12025 5.34721C8.36279 5.38277 7.85504 5.48464 7.38328 5.6678C6.96403 5.83039 6.66161 6.02455 6.33938 6.34678C6.01592 6.67024 5.82211 6.97186 5.66017 7.39129C5.47659 7.86414 5.37474 8.37109 5.33982 9.12751C5.28983 10.194 5.28399 10.5667 5.28399 13.0194C5.28399 15.4097 5.29032 15.7993 5.33981 16.911C5.37539 17.6682 5.4774 18.1767 5.66011 18.6473C5.82313 19.0671 6.01768 19.3702 6.33836 19.691C6.6631 20.0152 6.96561 20.2097 7.38107 20.3701C7.85858 20.5547 8.36601 20.6567 9.12011 20.6915C10.1866 20.7415 10.5594 20.7474 13.012 20.7474C15.4024 20.7474 15.792 20.741 16.9036 20.6915C17.6591 20.6561 18.168 20.5538 18.6399 20.3712C19.0586 20.2086 19.3627 20.0134 19.6836 19.693C20.0083 19.3677 20.2024 19.066 20.363 18.6495C20.5471 18.1738 20.6493 17.6656 20.6842 16.9113C20.7341 15.8447 20.74 15.472 20.74 13.0194C20.74 10.629 20.7336 10.2394 20.6842 9.12772C20.6486 8.37201 20.5463 7.86237 20.3635 7.39067C20.2014 6.97258 20.0065 6.66923 19.6845 6.34678C19.3605 6.02278 19.0597 5.82937 18.64 5.66755C18.1675 5.48413 17.6598 5.38214 16.9038 5.34722C15.8374 5.29722 15.4646 5.29137 13.012 5.29137ZM13.012 3.35938C15.6362 3.35938 15.9639 3.36903 16.9943 3.41733C18.0223 3.46483 18.7235 3.62744 19.3393 3.86653C19.976 4.11205 20.5138 4.44371 21.0507 4.98064C21.5868 5.51758 21.9185 6.05693 22.1648 6.69207C22.4031 7.3071 22.5657 8.00905 22.614 9.03704C22.6599 10.0674 22.672 10.3951 22.672 13.0194C22.672 15.6437 22.6623 15.9713 22.614 17.0017C22.5665 18.0297 22.4031 18.7308 22.1648 19.3467C21.9193 19.9835 21.5868 20.5211 21.0507 21.0581C20.5138 21.5943 19.9736 21.9259 19.3393 22.1722C18.7235 22.4105 18.0223 22.5731 16.9943 22.6214C15.9639 22.6673 15.6362 22.6794 13.012 22.6794C10.3877 22.6794 10.06 22.6697 9.02965 22.6214C8.00166 22.5739 7.30131 22.4105 6.68469 22.1722C6.04873 21.9267 5.51019 21.5943 4.97326 21.0581C4.43632 20.5211 4.10547 19.981 3.85914 19.3467C3.62005 18.7308 3.45825 18.0297 3.40995 17.0017C3.36406 15.9713 3.35199 15.6437 3.35199 13.0194C3.35199 10.3951 3.36165 10.0674 3.40995 9.03704C3.45744 8.00825 3.62005 7.3079 3.85914 6.69207C4.10466 6.05613 4.43632 5.51758 4.97326 4.98064C5.51019 4.44371 6.04954 4.11286 6.68469 3.86653C7.30051 3.62744 8.00086 3.46563 9.02965 3.41733C10.06 3.37145 10.3877 3.35938 13.012 3.35938Z" fill="white"/>
</svg>
