<svg width="28" height="27" viewBox="0 0 28 27" fill="none" xmlns="http://www.w3.org/2000/svg">
<g clip-path="url(#clip0_962_13970)">
<path d="M12.8365 2.56126C10.4845 2.74218 8.39052 3.5279 6.58688 4.91326C6.11916 5.27252 5.25094 6.10735 4.88268 6.5519C3.51718 8.20089 2.72153 10.0566 2.48499 12.1605C2.42317 12.7033 2.42317 13.763 2.48499 14.3006C2.64089 15.6756 2.98764 16.8077 3.62201 18.0302C3.77523 18.3222 3.89888 18.5755 3.89888 18.591C3.89888 18.6091 3.54675 19.8498 3.11667 21.3514C2.68928 22.8531 2.34253 24.0859 2.3479 24.0937C2.35597 24.0989 3.68652 23.7706 5.3047 23.3648L8.25075 22.6256L8.54643 22.7704C10.5839 23.7525 12.9037 24.117 15.1589 23.8146C19.9247 23.1736 23.7659 19.6197 24.5965 15.0811C24.7389 14.3032 24.7927 13.2435 24.7336 12.4707C24.5105 9.63793 23.2041 7.10501 21.0026 5.23375C19.2715 3.76569 17.2152 2.88175 14.8794 2.60778C14.546 2.56901 13.1563 2.538 12.8365 2.56126ZM14.5568 4.4196C17.3416 4.7039 19.793 6.1332 21.3332 8.37406C22.1423 9.55264 22.6047 10.7803 22.8009 12.2639C22.8546 12.6697 22.8466 13.8664 22.7874 14.2928C22.6154 15.5231 22.2176 16.6603 21.6101 17.6554C20.6155 19.2863 19.113 20.5786 17.3389 21.3307C16.5002 21.6874 15.6804 21.9019 14.6509 22.0389C14.2557 22.0906 12.8714 22.0829 12.4494 22.026C11.6806 21.9226 10.9898 21.7572 10.3393 21.5246C9.94419 21.3824 9.19961 21.0387 8.8206 20.8216L8.53836 20.6613L6.8046 21.0981C5.84768 21.3385 5.06547 21.5323 5.06009 21.5298C5.05472 21.5246 5.259 20.8009 5.50899 19.9221C5.76166 19.0408 5.96864 18.3067 5.96864 18.2912C5.96864 18.2757 5.87187 18.1155 5.7536 17.9346C4.99558 16.7792 4.53593 15.4843 4.38003 14.0731C4.33702 13.6958 4.33702 12.7808 4.38003 12.3931C4.61926 10.1471 5.71596 8.07941 7.44704 6.6191C8.91737 5.3759 10.6888 4.62378 12.6161 4.42218C13.073 4.37307 14.0918 4.37307 14.5568 4.4196Z" fill="white"/>
<path d="M9.39548 8.31967C9.0998 8.41272 8.84982 8.6169 8.51382 9.04595C8.07836 9.60164 7.85526 10.3951 7.93052 11.1111C8.01923 11.9407 8.34985 12.6722 9.10249 13.6853C10.4331 15.4842 11.9625 16.8075 13.5565 17.5364C14.1532 17.8104 15.2661 18.2007 15.7311 18.2989C15.9945 18.3557 16.723 18.379 17.024 18.3402C17.4541 18.2859 17.8654 18.1231 18.3223 17.8336C18.5616 17.6811 18.9191 17.3348 18.9997 17.1823C19.1852 16.8282 19.3223 16.0916 19.2497 15.8357C19.2255 15.7556 19.1906 15.7091 19.118 15.6626C18.9943 15.585 17.2014 14.7502 16.8896 14.6261C16.6101 14.515 16.438 14.4917 16.3251 14.5486C16.2795 14.5693 16.1558 14.6959 16.0537 14.8277C15.7875 15.1663 15.3252 15.6962 15.1908 15.8099C15.0322 15.9495 14.9462 15.9443 14.5215 15.7634C13.0458 15.1405 11.9975 14.2953 11.1319 13.0366C10.7475 12.4783 10.7368 12.4163 10.976 12.1656C11.4867 11.6306 11.7475 11.2403 11.7475 11.0103C11.7475 10.9275 11.7045 10.7957 11.5916 10.5399C11.5056 10.3434 11.2825 9.83426 11.0997 9.40779C10.9169 8.98133 10.7287 8.58072 10.683 8.5161C10.5379 8.3145 10.4841 8.29641 9.95996 8.29124C9.64009 8.28607 9.47075 8.29383 9.39548 8.31967Z" fill="white"/>
</g>
<defs>
<clipPath id="clip0_962_13970">
<rect width="26.88" height="25.8462" fill="white" transform="translate(0.950348 0.400391)"/>
</clipPath>
</defs>
</svg>
