<svg width="19" height="19" viewBox="0 0 19 19" fill="none" xmlns="http://www.w3.org/2000/svg">
<path d="M15.5713 15.5749H13.0168V11.5721C13.0168 10.6176 12.9975 9.38931 11.6857 9.38931C10.3539 9.38931 10.1504 10.428 10.1504 11.5017V15.5749H7.596V7.34375H10.0498V8.46567H10.0829C10.4258 7.8188 11.2595 7.13603 12.5051 7.13603C15.0933 7.13603 15.572 8.83952 15.572 11.0568L15.5713 15.5749ZM4.71097 6.21747C3.88872 6.21747 3.22819 5.55191 3.22819 4.73325C3.22819 3.91531 3.88944 3.25047 4.71097 3.25047C5.53034 3.25047 6.19447 3.91531 6.19447 4.73325C6.19447 5.55191 5.52963 6.21747 4.71097 6.21747ZM5.99178 15.5749H3.43016V7.34375H5.99178V15.5749ZM16.8492 0.875H2.14791C1.44425 0.875 0.875 1.43131 0.875 2.11772V16.8823C0.875 17.5694 1.44425 18.125 2.14791 18.125H16.8471C17.55 18.125 18.125 17.5694 18.125 16.8823V2.11772C18.125 1.43131 17.55 0.875 16.8471 0.875H16.8492Z" fill="white"/>
</svg>
