<svg width="100" height="100" viewBox="0 0 100 100" fill="none" xmlns="http://www.w3.org/2000/svg">
<g filter="url(#filter0_b_4331_3373)">
<rect width="100" height="100" rx="32" fill="black" fill-opacity="0.2"/>
<rect x="0.5" y="0.5" width="99" height="99" rx="31.5" stroke="url(#paint0_linear_4331_3373)" stroke-opacity="0.5"/>
</g>
<path d="M53.841 31.4712C53.841 31.4712 45.9756 40.855 41.1891 47.068C38.366 50.7323 36.664 52.707 34.0998 56.5569C32.9961 58.2142 31.3729 60.8651 31.3729 60.8651L38.2988 68.1182C38.2988 68.1182 46.9371 62.2876 52.205 58.193C58.4534 53.3361 67.5836 44.9957 67.5836 44.9957L75.0003 24L53.841 31.4712Z" stroke="white"/>
<path d="M31.4274 63.8101C31.4274 63.8101 28.1298 64.4189 26.7919 65.8824C25.7371 67.0364 25.4904 68.009 25.1559 69.5362C24.8051 71.1381 25.1559 73.7353 25.1559 73.7353C25.1559 73.7353 26.145 71.7702 26.7919 70.5178C27.2772 69.5784 27.719 69.0454 28.0462 68.7727C28.3734 68.5001 29.3005 68.1183 29.3005 68.1183C29.3005 68.1183 28.7944 70.6829 28.0462 72.1539C27.3548 73.5132 25.7558 75.3168 25.7558 75.3168C25.7558 75.3168 28.9903 75.7593 30.882 75.0987C32.7402 74.4499 33.9188 73.8165 34.9721 72.1539C35.8428 70.7794 36.0082 68.1183 36.0082 68.1183" stroke="white"/>
<path d="M34.0451 56.8293L42.3888 65.2276M54.2227 56.8293V66.8636L47.7332 71.9898V61.192M42.8796 44.8863H32.3545L26.5193 51.7576H37.3717" stroke="white"/>
<circle cx="62.0208" cy="37.0884" r="3.86274" stroke="white"/>
<defs>
<filter id="filter0_b_4331_3373" x="-100" y="-100" width="300" height="300" filterUnits="userSpaceOnUse" color-interpolation-filters="sRGB">
<feFlood flood-opacity="0" result="BackgroundImageFix"/>
<feGaussianBlur in="BackgroundImageFix" stdDeviation="50"/>
<feComposite in2="SourceAlpha" operator="in" result="effect1_backgroundBlur_4331_3373"/>
<feBlend mode="normal" in="SourceGraphic" in2="effect1_backgroundBlur_4331_3373" result="shape"/>
</filter>
<linearGradient id="paint0_linear_4331_3373" x1="41.3319" y1="0" x2="41.3319" y2="100" gradientUnits="userSpaceOnUse">
<stop stop-color="#EEEEEE" stop-opacity="0.6"/>
<stop offset="1" stop-color="white" stop-opacity="0.2"/>
</linearGradient>
</defs>
</svg>
